<svg xmlns="http://www.w3.org/2000/svg" width="30.57" height="22.685" viewBox="0 0 30.57 22.685">
  <g id="Group_106" data-name="Group 106" transform="translate(-9870 -1173.315)">
    <path id="Path_13" data-name="Path 13" d="M-1393.244,3479.315s-3.31,7.657,3.173,9.641C-1386.181,3483.525-1393.244,3479.315-1393.244,3479.315Z" transform="translate(11272.854 -2306)" fill="#2daa52"/>
    <path id="Path_14" data-name="Path 14" d="M.845,0s-3.31,7.657,3.173,9.64C7.907,4.21.845,0,.845,0Z" transform="matrix(0.588, -0.809, 0.809, 0.588, 9870, 1183.276)" fill="#2daa52"/>
    <path id="Path_15" data-name="Path 15" d="M.845,0s-3.31,7.657,3.173,9.64C7.907,4.21.845,0,.845,0Z" transform="translate(9870.575 1194.388) rotate(-88)" fill="#2daa52"/>
    <path id="Path_13-2" data-name="Path 13" d="M-1389.747,3479.315s3.31,7.657-3.173,9.641C-1396.809,3483.525-1389.747,3479.315-1389.747,3479.315Z" transform="translate(11280.707 -2306)" fill="#2daa52"/>
    <path id="Path_14-2" data-name="Path 14" d="M.845,9.64S-2.465,1.983,4.018,0C7.907,5.43.845,9.64.845,9.64Z" transform="matrix(-0.588, -0.809, 0.809, -0.588, 9892.771, 1188.943)" fill="#2daa52"/>
    <path id="Path_15-2" data-name="Path 15" d="M.845,9.64S-2.465,1.983,4.018,0C7.907,5.43.845,9.64.845,9.64Z" transform="matrix(-0.035, -0.999, 0.999, -0.035, 9890.36, 1194.725)" fill="#2daa52"/>
    <rect id="Rectangle_33" data-name="Rectangle 33" width="2" height="6" rx="1" transform="translate(9884 1190)" fill="#2daa52"/>
    <rect id="Rectangle_35" data-name="Rectangle 35" width="2" height="4" rx="1" transform="translate(9887 1189)" fill="#2daa52"/>
    <rect id="Rectangle_36" data-name="Rectangle 36" width="2" height="4" rx="1" transform="translate(9881 1189)" fill="#2daa52"/>
  </g>
</svg>
